<svg id="svg" fill="currentColor" stroke="currentColor" width="16" height="16" version="1.1" viewBox="144 144 512 512" xmlns="http://www.w3.org/2000/svg">
    <g id="IconSvg_bgCarrier" stroke-width="0"></g>
    <g id="IconSvg_tracerCarrier" stroke-linecap="round" stroke-linejoin="round" stroke="#CCCCCC" stroke-width="0">
      <g xmlns="http://www.w3.org/2000/svg">
  <path d="m506.61 175.3-58.039 58.039 117.18 117.29 58.039-58.039c5.8438-5.8438 5.8438-15.316 0-21.16l-96.023-96.125c-5.8438-5.8438-15.316-5.8438-21.16 0z"></path>
  <path d="m501.27 169.96c-19.348 19.348-38.691 38.691-58.039 58.039-2.9219 2.9219-2.9219 7.7578 0 10.68 34.258 34.258 68.52 68.52 102.88 102.88 4.7344 4.7344 9.5742 9.5742 14.309 14.309 2.9219 2.9219 7.7578 2.9219 10.68 0 12.395-12.395 24.688-24.688 37.082-37.082 6.3477-6.3477 12.594-12.594 18.941-18.941 9.0703-9.0703 12.09-22.371 3.0234-32.949-8.7656-10.176-19.145-19.246-28.617-28.719-16.223-16.223-32.445-32.445-48.77-48.77l-17.531-17.531c-9.6758-9.4727-23.277-11.691-33.957-1.9141-7.2539 6.5508 3.5273 17.23 10.68 10.68 5.4414-4.9375 10.078-0.40234 13.906 3.4258 5.0391 5.0391 10.078 10.078 15.012 15.012 15.316 15.316 30.633 30.633 45.949 45.949 10.277 10.277 21.059 20.254 30.934 30.934 4.1328 4.4336 2.9219 8.9688-1.0078 12.898l-16.93 16.93c-13.098 13.098-26.301 26.301-39.398 39.398h10.68c-34.258-34.258-68.52-68.52-102.88-102.88-4.7344-4.7344-9.5742-9.5742-14.309-14.309v10.68c19.348-19.348 38.691-38.691 58.039-58.039 6.8555-6.8516-3.8242-17.535-10.676-10.68z"></path>
  <path d="m427.61 254.3-244.65 244.65-11.184 130.19 127.16-11.789 245.86-245.86z"></path>
  <path d="m422.27 248.96c-14.711 14.711-29.32 29.32-44.031 44.031-31.137 31.137-62.172 62.172-93.305 93.305-28.012 28.016-56.125 56.125-84.238 84.238-7.0547 7.0547-14.008 14.008-21.059 21.059-2.3164 2.3164-3.9297 3.9297-4.332 7.5586-0.50391 4.332-0.70703 8.7656-1.1094 13.098-3.2227 38.09-6.4492 76.074-9.7734 114.16-0.10156 0.90625-0.20312 1.8125-0.20312 2.8203-0.30078 3.8281 3.7266 7.9609 7.5586 7.5586 34.66-3.2227 69.324-6.4492 103.98-9.5742 6.75-0.60547 13.504-1.2109 20.254-1.9141 3.3242-0.30078 6.1445-0.70703 8.7656-3.0234 5.7422-5.3398 11.184-11.184 16.727-16.727 26.703-26.703 53.402-53.402 80.207-80.207 31.641-31.641 63.277-63.277 94.918-94.918 17.531-17.531 35.668-34.66 52.699-52.699 0.20312-0.30078 0.50391-0.50391 0.80469-0.80469 2.9219-2.9219 2.9219-7.7578 0-10.68-34.258-34.258-68.52-68.52-102.88-102.88-4.7344-4.7344-9.5742-9.5742-14.309-14.309-6.8516-6.8516-17.531 3.8281-10.68 10.68l117.19 117.19v-10.68c-8.1602 8.1602-16.223 16.223-24.383 24.383-19.547 19.547-39.094 39.094-58.645 58.645-23.68 23.68-47.258 47.258-70.938 70.938-20.555 20.555-41.109 41.109-61.668 61.668l-20.254 20.254c-3.125 3.125-6.9531 6.1445-9.5742 9.5742-0.10156 0.20312-0.30078 0.30078-0.40234 0.40234 1.8125-0.70703 3.5273-1.5117 5.3398-2.2148-37.082 3.4258-74.262 6.8516-111.34 10.277-5.2383 0.50391-10.48 1.0078-15.719 1.4102 2.5195 2.5195 5.0391 5.0391 7.5586 7.5586 3.2227-37.988 6.4492-75.973 9.6719-113.96 0.50391-5.4414 0.90625-10.781 1.4102-16.223-0.70703 1.8125-1.5117 3.5273-2.2148 5.3398 8.0625-8.0625 16.121-16.121 24.285-24.285 19.547-19.547 39.094-39.094 58.543-58.543 23.477-23.477 47.055-47.055 70.535-70.535 20.355-20.355 40.707-40.707 61.062-61.062 9.9766-9.9766 20.355-19.547 29.926-29.926 0.10156-0.10156 0.30078-0.30078 0.40234-0.40234 6.8516-6.8555-3.8281-17.535-10.781-10.582z"></path>
 </g>

      </g>
     <g id="IconSvg_iconCarrier">
      <g xmlns="http://www.w3.org/2000/svg">
  <path d="m506.61 175.3-58.039 58.039 117.18 117.29 58.039-58.039c5.8438-5.8438 5.8438-15.316 0-21.16l-96.023-96.125c-5.8438-5.8438-15.316-5.8438-21.16 0z"></path>
  <path d="m501.27 169.96c-19.348 19.348-38.691 38.691-58.039 58.039-2.9219 2.9219-2.9219 7.7578 0 10.68 34.258 34.258 68.52 68.52 102.88 102.88 4.7344 4.7344 9.5742 9.5742 14.309 14.309 2.9219 2.9219 7.7578 2.9219 10.68 0 12.395-12.395 24.688-24.688 37.082-37.082 6.3477-6.3477 12.594-12.594 18.941-18.941 9.0703-9.0703 12.09-22.371 3.0234-32.949-8.7656-10.176-19.145-19.246-28.617-28.719-16.223-16.223-32.445-32.445-48.77-48.77l-17.531-17.531c-9.6758-9.4727-23.277-11.691-33.957-1.9141-7.2539 6.5508 3.5273 17.23 10.68 10.68 5.4414-4.9375 10.078-0.40234 13.906 3.4258 5.0391 5.0391 10.078 10.078 15.012 15.012 15.316 15.316 30.633 30.633 45.949 45.949 10.277 10.277 21.059 20.254 30.934 30.934 4.1328 4.4336 2.9219 8.9688-1.0078 12.898l-16.93 16.93c-13.098 13.098-26.301 26.301-39.398 39.398h10.68c-34.258-34.258-68.52-68.52-102.88-102.88-4.7344-4.7344-9.5742-9.5742-14.309-14.309v10.68c19.348-19.348 38.691-38.691 58.039-58.039 6.8555-6.8516-3.8242-17.535-10.676-10.68z"></path>
  <path d="m427.61 254.3-244.65 244.65-11.184 130.19 127.16-11.789 245.86-245.86z"></path>
  <path d="m422.27 248.96c-14.711 14.711-29.32 29.32-44.031 44.031-31.137 31.137-62.172 62.172-93.305 93.305-28.012 28.016-56.125 56.125-84.238 84.238-7.0547 7.0547-14.008 14.008-21.059 21.059-2.3164 2.3164-3.9297 3.9297-4.332 7.5586-0.50391 4.332-0.70703 8.7656-1.1094 13.098-3.2227 38.09-6.4492 76.074-9.7734 114.16-0.10156 0.90625-0.20312 1.8125-0.20312 2.8203-0.30078 3.8281 3.7266 7.9609 7.5586 7.5586 34.66-3.2227 69.324-6.4492 103.98-9.5742 6.75-0.60547 13.504-1.2109 20.254-1.9141 3.3242-0.30078 6.1445-0.70703 8.7656-3.0234 5.7422-5.3398 11.184-11.184 16.727-16.727 26.703-26.703 53.402-53.402 80.207-80.207 31.641-31.641 63.277-63.277 94.918-94.918 17.531-17.531 35.668-34.66 52.699-52.699 0.20312-0.30078 0.50391-0.50391 0.80469-0.80469 2.9219-2.9219 2.9219-7.7578 0-10.68-34.258-34.258-68.52-68.52-102.88-102.88-4.7344-4.7344-9.5742-9.5742-14.309-14.309-6.8516-6.8516-17.531 3.8281-10.68 10.68l117.19 117.19v-10.68c-8.1602 8.1602-16.223 16.223-24.383 24.383-19.547 19.547-39.094 39.094-58.645 58.645-23.68 23.68-47.258 47.258-70.938 70.938-20.555 20.555-41.109 41.109-61.668 61.668l-20.254 20.254c-3.125 3.125-6.9531 6.1445-9.5742 9.5742-0.10156 0.20312-0.30078 0.30078-0.40234 0.40234 1.8125-0.70703 3.5273-1.5117 5.3398-2.2148-37.082 3.4258-74.262 6.8516-111.34 10.277-5.2383 0.50391-10.48 1.0078-15.719 1.4102 2.5195 2.5195 5.0391 5.0391 7.5586 7.5586 3.2227-37.988 6.4492-75.973 9.6719-113.96 0.50391-5.4414 0.90625-10.781 1.4102-16.223-0.70703 1.8125-1.5117 3.5273-2.2148 5.3398 8.0625-8.0625 16.121-16.121 24.285-24.285 19.547-19.547 39.094-39.094 58.543-58.543 23.477-23.477 47.055-47.055 70.535-70.535 20.355-20.355 40.707-40.707 61.062-61.062 9.9766-9.9766 20.355-19.547 29.926-29.926 0.10156-0.10156 0.30078-0.30078 0.40234-0.40234 6.8516-6.8555-3.8281-17.535-10.781-10.582z"></path>
 </g>

      </g>
      </svg>