<svg id="svg" fill=currentColor stroke=currentColor width="16" height="16" version="1.1" viewBox="144 144 512 512" xmlns="http://www.w3.org/2000/svg">
    <g id="IconSvg_bgCarrier" stroke-width="0"></g>
    <g id="IconSvg_tracerCarrier" stroke-linecap="round" stroke-linejoin="round" stroke="#CCCCCC" stroke-width="0">
      <g xmlns="http://www.w3.org/2000/svg">
  <path d="m566.54 340.42c-1.9727 8.1133-13.203 16.375-31.34 23.375 11.293-7.3164 18.105-15.934 18.105-25.852v-17.152c7.5977 4.8945 15.125 11.844 13.234 19.629z"></path>
  <path d="m387.97 252.25c91.242 0 154.82 23.363 154.82 44.336 0 20.973-63.594 44.348-154.82 44.348-91.23 0-154.82-23.375-154.82-44.348 0-20.973 63.574-44.336 154.82-44.336z"></path>
  <path d="m233.15 316.67c25.031 22.66 91.41 34.742 154.82 34.742s129.79-12.059 154.82-34.742v21.266c0 20.961-63.594 44.348-154.82 44.348-91.23 0-154.82-23.387-154.82-44.348z"></path>
  <path d="m246.7 367.38v11.945c0 8.1016 4.5977 15.324 12.355 21.695-12.836-6.3398-19.953-13.09-21.508-19.113-1.2812-4.9648 1.3945-10.117 7.4961-15.367 0.52344 0.30469 1.1328 0.54688 1.6562 0.83984z"></path>
  <path d="m237.27 420.69v-21.359c15.66 14.055 48.02 25.129 91.84 30.848 20.004 2.6133 41.418 3.9688 62.965 3.9688 2.625 0 5.2695-0.14844 7.9141-0.1875 4.0195 0.09375 8.0312 0.1875 12.051 0.1875 50.496 0 102.96-7.6523 134.88-22.199v8.7422c0 20.961-63.574 44.336-154.82 44.336-91.254-0.011719-154.83-23.355-154.83-44.336z"></path>
  <path d="m392.09 475.51c3.2227 0 6.4453-0.082031 9.6758-0.14844 0.0625 0 0.11719 0.042969 0.1875 0.042969 3.168 0.0625 6.3281 0.09375 9.5078 0.09375 64.164 0 130.34-12.469 155.39-34.93v21.484c0 20.973-63.594 44.336-154.82 44.336-91.23 0-154.82-23.363-154.82-44.336v-8.7422c31.902 14.559 84.352 22.199 134.87 22.199z"></path>
  <path d="m412.02 547.75c-91.223 0-154.82-23.375-154.82-44.348v-21.266c25.031 22.66 91.41 34.742 154.82 34.742s129.79-12.059 154.82-34.742v21.266c0.011719 20.984-63.574 44.348-154.82 44.348z"></path>
  <path d="m566.62 422.73c-1.332 6.6953-8.9648 13.488-21.57 19.637 7.7461-6.3594 12.344-13.582 12.344-21.676v-14.266c5.4609 4.2031 10.52 9.9648 9.2266 16.305z"></path>
  <path d="m554.67 395.58c-0.019531 0.019531-0.0625 0.03125-0.082031 0.050781-22.062 14.801-72.402 27.32-137.55 27.93-0.71484-0.31641-1.5234-0.53516-2.3828-0.41797-4.6914 0.21875-9.4062 0.24219-14.117 0.31641-85.008-1.8672-143.34-24.078-143.34-44.145v-7.0234c32.203 13.414 82.34 20.477 130.76 20.477 3.9141 0 7.8398-0.082031 11.766-0.17969 0.050781 0 0.082031 0.03125 0.13672 0.03125 3.8203 0.09375 7.6523 0.13672 11.484 0.13672 64.227 0 130.46-12.449 155.49-34.961v21.516c0.019531 5.4297-4.3047 10.98-12.156 16.27z"></path>
 </g>

      </g>
     <g id="IconSvg_iconCarrier">
      <g xmlns="http://www.w3.org/2000/svg">
  <path d="m566.54 340.42c-1.9727 8.1133-13.203 16.375-31.34 23.375 11.293-7.3164 18.105-15.934 18.105-25.852v-17.152c7.5977 4.8945 15.125 11.844 13.234 19.629z"></path>
  <path d="m387.97 252.25c91.242 0 154.82 23.363 154.82 44.336 0 20.973-63.594 44.348-154.82 44.348-91.23 0-154.82-23.375-154.82-44.348 0-20.973 63.574-44.336 154.82-44.336z"></path>
  <path d="m233.15 316.67c25.031 22.66 91.41 34.742 154.82 34.742s129.79-12.059 154.82-34.742v21.266c0 20.961-63.594 44.348-154.82 44.348-91.23 0-154.82-23.387-154.82-44.348z"></path>
  <path d="m246.7 367.38v11.945c0 8.1016 4.5977 15.324 12.355 21.695-12.836-6.3398-19.953-13.09-21.508-19.113-1.2812-4.9648 1.3945-10.117 7.4961-15.367 0.52344 0.30469 1.1328 0.54688 1.6562 0.83984z"></path>
  <path d="m237.27 420.69v-21.359c15.66 14.055 48.02 25.129 91.84 30.848 20.004 2.6133 41.418 3.9688 62.965 3.9688 2.625 0 5.2695-0.14844 7.9141-0.1875 4.0195 0.09375 8.0312 0.1875 12.051 0.1875 50.496 0 102.96-7.6523 134.88-22.199v8.7422c0 20.961-63.574 44.336-154.82 44.336-91.254-0.011719-154.83-23.355-154.83-44.336z"></path>
  <path d="m392.09 475.51c3.2227 0 6.4453-0.082031 9.6758-0.14844 0.0625 0 0.11719 0.042969 0.1875 0.042969 3.168 0.0625 6.3281 0.09375 9.5078 0.09375 64.164 0 130.34-12.469 155.39-34.93v21.484c0 20.973-63.594 44.336-154.82 44.336-91.23 0-154.82-23.363-154.82-44.336v-8.7422c31.902 14.559 84.352 22.199 134.87 22.199z"></path>
  <path d="m412.02 547.75c-91.223 0-154.82-23.375-154.82-44.348v-21.266c25.031 22.66 91.41 34.742 154.82 34.742s129.79-12.059 154.82-34.742v21.266c0.011719 20.984-63.574 44.348-154.82 44.348z"></path>
  <path d="m566.62 422.73c-1.332 6.6953-8.9648 13.488-21.57 19.637 7.7461-6.3594 12.344-13.582 12.344-21.676v-14.266c5.4609 4.2031 10.52 9.9648 9.2266 16.305z"></path>
  <path d="m554.67 395.58c-0.019531 0.019531-0.0625 0.03125-0.082031 0.050781-22.062 14.801-72.402 27.32-137.55 27.93-0.71484-0.31641-1.5234-0.53516-2.3828-0.41797-4.6914 0.21875-9.4062 0.24219-14.117 0.31641-85.008-1.8672-143.34-24.078-143.34-44.145v-7.0234c32.203 13.414 82.34 20.477 130.76 20.477 3.9141 0 7.8398-0.082031 11.766-0.17969 0.050781 0 0.082031 0.03125 0.13672 0.03125 3.8203 0.09375 7.6523 0.13672 11.484 0.13672 64.227 0 130.46-12.449 155.49-34.961v21.516c0.019531 5.4297-4.3047 10.98-12.156 16.27z"></path>
 </g>

      </g>
      </svg>