<svg id="svg" fill="#000000" stroke="#000000" width="16" height="16" version="1.1" viewBox="144 144 512 512" xmlns="http://www.w3.org/2000/svg">
    <g id="IconSvg_bgCarrier" stroke-width="0"></g>
    <g id="IconSvg_tracerCarrier" stroke-linecap="round" stroke-linejoin="round" stroke="#CCCCCC" stroke-width="0">
      <path xmlns="http://www.w3.org/2000/svg" d="m613.87 274.5v-0.45312c0-0.60547-0.35156-1.2578-0.55469-1.8633-0.20312-0.60547 0 0 0-0.25l-0.35156-0.65625c0-0.45312-0.45313-0.90625-0.70703-1.3594v-0.003907c-0.23047-0.11328-0.44922-0.24609-0.65625-0.40234-0.32422-0.44141-0.67578-0.86328-1.0586-1.2578-0.12109-0.14844-0.25391-0.28516-0.40234-0.40625-0.50781-0.52344-1.0625-0.99219-1.6602-1.4102h-0.35547c-0.50391-0.3125-1.0234-0.60156-1.5625-0.85547l-0.70703-0.25-1.5117-0.50391h-0.70703 0.003907c-0.75391-0.078125-1.5117-0.078125-2.2656 0h-402.89c-0.75391-0.078125-1.5156-0.078125-2.2695 0h-0.70703l-1.5117 0.50391-0.55078 0.046875c-0.53906 0.25781-1.0586 0.54297-1.5625 0.85938h-0.35156c-0.60156 0.41406-1.1562 0.88672-1.6641 1.4102-0.14844 0.12109-0.28125 0.25391-0.40234 0.40234-0.38672 0.46094-0.74219 0.94922-1.0586 1.4609-0.11719 0.21484-0.25 0.41406-0.40234 0.60547 0 0.45312-0.50391 0.90625-0.70703 1.3594l-0.35156 0.65625v0.25c0 0.25-0.40234 1.2578-0.55469 1.8633v0.25391c-0.074218 0.6875-0.074218 1.3789 0 2.0664v0.30078 246.36c-0.074218 0.75391-0.074218 1.5117 0 2.2656v0.75391c0 0.30078 0 0.65625 0.30078 1.0078v0.40234c0 0.30078 0 0.55469 0.35156 0.80469 0.35156 0.25 0.45312 0.85547 0.70703 1.3086l0.40234 0.60547 0.003907 0.003906c0.34375 0.50391 0.73047 0.97656 1.1562 1.4141l0.25 0.30078h0.003906c0.53516 0.51172 1.1055 0.98438 1.7109 1.4102l0.50391 0.30078c0.44922 0.29297 0.92187 0.54688 1.4102 0.75781 0.24219 0.12109 0.49609 0.22266 0.75781 0.30078 0.46875 0.20312 0.95703 0.35547 1.4609 0.45312h0.70703-0.003906c0.77344 0.078126 1.5469 0.078126 2.3203 0h403.1c0.76953 0.078126 1.5469 0.078126 2.3164 0h0.70703c0.5-0.097656 0.98828-0.25 1.4609-0.45312l0.75391-0.30078c0.49219-0.21094 0.96094-0.46484 1.4102-0.75781l0.50391-0.30078c0.60547-0.42578 1.1797-0.89844 1.7148-1.4102v-0.30078c0.42578-0.4375 0.8125-0.91016 1.1562-1.4141l0.40234-0.60547c0-0.45312 0.50391-0.85547 0.70703-1.3086s0-0.50391 0.35156-0.80469v-0.40234c0-0.35156 0-0.70703 0.30078-1.0078v-0.75391l0.003906-0.003906c0.074219-0.75391 0.074219-1.5117 0-2.2656v-246.36-0.30078c0.26172-0.66797 0.44531-1.3594 0.55469-2.0664zm-45.344 15.113-140.11 124.24c-7.832 6.9609-17.941 10.805-28.414 10.805-10.477 0-20.586-3.8438-28.418-10.805l-139.96-124.39zm-357.45 15.266 115.52 102.68-115.52 89.832zm24.133 205.66 110.54-85.949 8.918 8.1094c12.434 11.062 28.496 17.176 45.141 17.176s32.707-6.1133 45.141-17.176l9.1172-8.1133 110.74 85.953zm353.72-13.148-115.52-89.832 115.52-102.68z"></path>

      </g>
     <g id="IconSvg_iconCarrier">
      <path xmlns="http://www.w3.org/2000/svg" d="m613.87 274.5v-0.45312c0-0.60547-0.35156-1.2578-0.55469-1.8633-0.20312-0.60547 0 0 0-0.25l-0.35156-0.65625c0-0.45312-0.45313-0.90625-0.70703-1.3594v-0.003907c-0.23047-0.11328-0.44922-0.24609-0.65625-0.40234-0.32422-0.44141-0.67578-0.86328-1.0586-1.2578-0.12109-0.14844-0.25391-0.28516-0.40234-0.40625-0.50781-0.52344-1.0625-0.99219-1.6602-1.4102h-0.35547c-0.50391-0.3125-1.0234-0.60156-1.5625-0.85547l-0.70703-0.25-1.5117-0.50391h-0.70703 0.003907c-0.75391-0.078125-1.5117-0.078125-2.2656 0h-402.89c-0.75391-0.078125-1.5156-0.078125-2.2695 0h-0.70703l-1.5117 0.50391-0.55078 0.046875c-0.53906 0.25781-1.0586 0.54297-1.5625 0.85938h-0.35156c-0.60156 0.41406-1.1562 0.88672-1.6641 1.4102-0.14844 0.12109-0.28125 0.25391-0.40234 0.40234-0.38672 0.46094-0.74219 0.94922-1.0586 1.4609-0.11719 0.21484-0.25 0.41406-0.40234 0.60547 0 0.45312-0.50391 0.90625-0.70703 1.3594l-0.35156 0.65625v0.25c0 0.25-0.40234 1.2578-0.55469 1.8633v0.25391c-0.074218 0.6875-0.074218 1.3789 0 2.0664v0.30078 246.36c-0.074218 0.75391-0.074218 1.5117 0 2.2656v0.75391c0 0.30078 0 0.65625 0.30078 1.0078v0.40234c0 0.30078 0 0.55469 0.35156 0.80469 0.35156 0.25 0.45312 0.85547 0.70703 1.3086l0.40234 0.60547 0.003907 0.003906c0.34375 0.50391 0.73047 0.97656 1.1562 1.4141l0.25 0.30078h0.003906c0.53516 0.51172 1.1055 0.98438 1.7109 1.4102l0.50391 0.30078c0.44922 0.29297 0.92187 0.54688 1.4102 0.75781 0.24219 0.12109 0.49609 0.22266 0.75781 0.30078 0.46875 0.20312 0.95703 0.35547 1.4609 0.45312h0.70703-0.003906c0.77344 0.078126 1.5469 0.078126 2.3203 0h403.1c0.76953 0.078126 1.5469 0.078126 2.3164 0h0.70703c0.5-0.097656 0.98828-0.25 1.4609-0.45312l0.75391-0.30078c0.49219-0.21094 0.96094-0.46484 1.4102-0.75781l0.50391-0.30078c0.60547-0.42578 1.1797-0.89844 1.7148-1.4102v-0.30078c0.42578-0.4375 0.8125-0.91016 1.1562-1.4141l0.40234-0.60547c0-0.45312 0.50391-0.85547 0.70703-1.3086s0-0.50391 0.35156-0.80469v-0.40234c0-0.35156 0-0.70703 0.30078-1.0078v-0.75391l0.003906-0.003906c0.074219-0.75391 0.074219-1.5117 0-2.2656v-246.36-0.30078c0.26172-0.66797 0.44531-1.3594 0.55469-2.0664zm-45.344 15.113-140.11 124.24c-7.832 6.9609-17.941 10.805-28.414 10.805-10.477 0-20.586-3.8438-28.418-10.805l-139.96-124.39zm-357.45 15.266 115.52 102.68-115.52 89.832zm24.133 205.66 110.54-85.949 8.918 8.1094c12.434 11.062 28.496 17.176 45.141 17.176s32.707-6.1133 45.141-17.176l9.1172-8.1133 110.74 85.953zm353.72-13.148-115.52-89.832 115.52-102.68z"></path>

      </g>
      </svg>