<svg id="svg" fill=currentColor stroke=currentColor width="16" height="16" version="1.1" viewBox="144 144 512 512" xmlns="http://www.w3.org/2000/svg">
    <g id="IconSvg_bgCarrier" stroke-width="0"></g>
    <g id="IconSvg_tracerCarrier" stroke-linecap="round" stroke-linejoin="round" stroke="#CCCCCC" stroke-width="0">
      <defs xmlns="http://www.w3.org/2000/svg">
  <clipPath id="a">
   <path d="m166 148.09h288v503.81h-288z"></path>
  </clipPath>
 </defs>
<g xmlns="http://www.w3.org/2000/svg" clip-path="url(#a)">
  <path d="m435.98 346.02c4.7734 0 9.3477-1.8945 12.723-5.2695s5.2695-7.9531 5.2695-12.723v-125.95c0-4.7734-1.8945-9.3516-5.2695-12.723-3.375-3.375-7.9492-5.2695-12.723-5.2695h-89.965v-17.996c-0.003906-5.5391-2.5547-10.766-6.918-14.176-4.3672-3.4062-10.059-4.6172-15.43-3.2773l-143.95 35.988c-3.8945 0.96875-7.3516 3.2148-9.8242 6.3789-2.4727 3.1602-3.8125 7.0586-3.8164 11.074v395.85c0.003906 4.0156 1.3438 7.9141 3.8164 11.074 2.4727 3.1641 5.9297 5.4102 9.8242 6.3828l143.95 35.988v-0.003907c5.3711 1.3398 11.062 0.13281 15.43-3.2773 4.3633-3.4102 6.9141-8.6367 6.918-14.176v-17.992h89.965c4.7734 0 9.3477-1.8984 12.723-5.2695 3.375-3.375 5.2695-7.9531 5.2695-12.727v-125.95c0-6.4297-3.4297-12.371-8.9961-15.582-5.5664-3.2148-12.426-3.2148-17.992 0-5.5664 3.2109-8.9961 9.1523-8.9961 15.582v107.96l-71.973-0.003906v-359.86h71.973v107.96c0 4.7695 1.8945 9.3477 5.2695 12.723s7.9492 5.2695 12.723 5.2695zm-125.95 264.84-107.96-26.988 0.003907-367.75 107.96-26.988z"></path>
 </g>
<path xmlns="http://www.w3.org/2000/svg" d="m274.05 435.98c-4.7734 0-9.3477-1.8945-12.723-5.2695s-5.2695-7.9492-5.2695-12.723v-35.988c0-6.4258 3.4258-12.367 8.9961-15.582 5.5664-3.2148 12.426-3.2148 17.992 0 5.5664 3.2148 8.9961 9.1562 8.9961 15.582v35.988c0 4.7734-1.8945 9.3477-5.2695 12.723s-7.9531 5.2695-12.723 5.2695z"></path>
<path xmlns="http://www.w3.org/2000/svg" d="m628.64 387.28-53.98-53.98h0.003906c-4.5703-4.4141-11.133-6.0898-17.258-4.4102-6.1289 1.6797-10.918 6.4688-12.598 12.598-1.6797 6.125-0.003907 12.684 4.4102 17.254l23.266 23.266h-190.48c-6.4258 0-12.367 3.4297-15.582 8.9961-3.2148 5.5703-3.2148 12.43 0 17.996s9.1562 8.9961 15.582 8.9961h190.48l-23.266 23.266c-4.4141 4.5703-6.0898 11.129-4.4102 17.258 1.6797 6.125 6.4688 10.914 12.598 12.594 6.125 1.6797 12.688 0.003906 17.258-4.4102l53.98-53.98h-0.003906c3.375-3.375 5.2695-7.9492 5.2695-12.719 0-4.7734-1.8945-9.3477-5.2695-12.723z"></path>

      </g>
     <g id="IconSvg_iconCarrier">
      <defs xmlns="http://www.w3.org/2000/svg">
  <clipPath id="a">
   <path d="m166 148.09h288v503.81h-288z"></path>
  </clipPath>
 </defs>
<g xmlns="http://www.w3.org/2000/svg" clip-path="url(#a)">
  <path d="m435.98 346.02c4.7734 0 9.3477-1.8945 12.723-5.2695s5.2695-7.9531 5.2695-12.723v-125.95c0-4.7734-1.8945-9.3516-5.2695-12.723-3.375-3.375-7.9492-5.2695-12.723-5.2695h-89.965v-17.996c-0.003906-5.5391-2.5547-10.766-6.918-14.176-4.3672-3.4062-10.059-4.6172-15.43-3.2773l-143.95 35.988c-3.8945 0.96875-7.3516 3.2148-9.8242 6.3789-2.4727 3.1602-3.8125 7.0586-3.8164 11.074v395.85c0.003906 4.0156 1.3438 7.9141 3.8164 11.074 2.4727 3.1641 5.9297 5.4102 9.8242 6.3828l143.95 35.988v-0.003907c5.3711 1.3398 11.062 0.13281 15.43-3.2773 4.3633-3.4102 6.9141-8.6367 6.918-14.176v-17.992h89.965c4.7734 0 9.3477-1.8984 12.723-5.2695 3.375-3.375 5.2695-7.9531 5.2695-12.727v-125.95c0-6.4297-3.4297-12.371-8.9961-15.582-5.5664-3.2148-12.426-3.2148-17.992 0-5.5664 3.2109-8.9961 9.1523-8.9961 15.582v107.96l-71.973-0.003906v-359.86h71.973v107.96c0 4.7695 1.8945 9.3477 5.2695 12.723s7.9492 5.2695 12.723 5.2695zm-125.95 264.84-107.96-26.988 0.003907-367.75 107.96-26.988z"></path>
 </g>
<path xmlns="http://www.w3.org/2000/svg" d="m274.05 435.98c-4.7734 0-9.3477-1.8945-12.723-5.2695s-5.2695-7.9492-5.2695-12.723v-35.988c0-6.4258 3.4258-12.367 8.9961-15.582 5.5664-3.2148 12.426-3.2148 17.992 0 5.5664 3.2148 8.9961 9.1562 8.9961 15.582v35.988c0 4.7734-1.8945 9.3477-5.2695 12.723s-7.9531 5.2695-12.723 5.2695z"></path>
<path xmlns="http://www.w3.org/2000/svg" d="m628.64 387.28-53.98-53.98h0.003906c-4.5703-4.4141-11.133-6.0898-17.258-4.4102-6.1289 1.6797-10.918 6.4688-12.598 12.598-1.6797 6.125-0.003907 12.684 4.4102 17.254l23.266 23.266h-190.48c-6.4258 0-12.367 3.4297-15.582 8.9961-3.2148 5.5703-3.2148 12.43 0 17.996s9.1562 8.9961 15.582 8.9961h190.48l-23.266 23.266c-4.4141 4.5703-6.0898 11.129-4.4102 17.258 1.6797 6.125 6.4688 10.914 12.598 12.594 6.125 1.6797 12.688 0.003906 17.258-4.4102l53.98-53.98h-0.003906c3.375-3.375 5.2695-7.9492 5.2695-12.719 0-4.7734-1.8945-9.3477-5.2695-12.723z"></path>

      </g>
      </svg>