<svg id="svg" fill="#000000" stroke="#000000" width="16" height="16" version="1.1" viewBox="144 144 512 512" xmlns="http://www.w3.org/2000/svg">
    <g id="IconSvg_bgCarrier" stroke-width="0"></g>
    <g id="IconSvg_tracerCarrier" stroke-linecap="round" stroke-linejoin="round" stroke="#CCCCCC" stroke-width="0">
      <g xmlns="http://www.w3.org/2000/svg">
  <path d="m246.16 608.03c-2.1172 0-4.1406-0.89062-5.5703-2.4531-1.4375-1.5664-2.1445-3.668-1.9531-5.7852l25.477-281.32c0.35156-3.8945 3.6133-6.8789 7.5234-6.8789l250.73-0.070312c3.875 0 7.125 2.9336 7.5156 6.7852l28.766 280.55c0.21484 2.1211-0.47266 4.2383-1.8984 5.8242-1.4258 1.5859-3.4609 2.5-5.5977 2.5039l-304.96 0.83984h-0.023438zm32.379-281.33-24.102 266.19 288.32-0.79688-27.223-265.46z"></path>
  <path d="m453.36 359.2c-4.1758 0-7.5586-3.3789-7.5586-7.5586v-82.719c0-30.293-22.738-54.941-50.688-54.941-27.953 0-50.684 24.645-50.684 54.941v82.719c0 4.1758-3.3789 7.5586-7.5586 7.5586-4.1758 0-7.5586-3.3789-7.5586-7.5586l0.003906-82.719c0-38.629 29.52-70.055 65.797-70.055 36.285 0 65.801 31.426 65.801 70.055v82.719c0 4.1797-3.3789 7.5586-7.5547 7.5586z"></path>
  <path d="m336.88 377.95c-13.012 0-23.598-10.402-23.598-23.195 0-12.785 10.586-23.191 23.598-23.191 13.008 0 23.594 10.402 23.594 23.191 0 12.793-10.586 23.195-23.594 23.195zm0-36.305c-7.457 0-13.523 5.8789-13.523 13.113s6.0664 13.121 13.523 13.121c7.4531 0 13.516-5.8828 13.516-13.121 0-7.2305-6.0664-13.113-13.516-13.113z"></path>
  <path d="m453.36 377.08c-13.008 0-23.594-10.402-23.594-23.191 0-12.793 10.586-23.195 23.594-23.195 13.012 0 23.598 10.402 23.598 23.195 0 12.785-10.586 23.191-23.598 23.191zm0-36.312c-7.4531 0-13.516 5.8828-13.516 13.121 0 7.2344 6.0664 13.113 13.516 13.113 7.457 0 13.523-5.8789 13.523-13.113-0.003907-7.2344-6.0664-13.121-13.523-13.121z"></path>
 </g>

      </g>
     <g id="IconSvg_iconCarrier">
      <g xmlns="http://www.w3.org/2000/svg">
  <path d="m246.16 608.03c-2.1172 0-4.1406-0.89062-5.5703-2.4531-1.4375-1.5664-2.1445-3.668-1.9531-5.7852l25.477-281.32c0.35156-3.8945 3.6133-6.8789 7.5234-6.8789l250.73-0.070312c3.875 0 7.125 2.9336 7.5156 6.7852l28.766 280.55c0.21484 2.1211-0.47266 4.2383-1.8984 5.8242-1.4258 1.5859-3.4609 2.5-5.5977 2.5039l-304.96 0.83984h-0.023438zm32.379-281.33-24.102 266.19 288.32-0.79688-27.223-265.46z"></path>
  <path d="m453.36 359.2c-4.1758 0-7.5586-3.3789-7.5586-7.5586v-82.719c0-30.293-22.738-54.941-50.688-54.941-27.953 0-50.684 24.645-50.684 54.941v82.719c0 4.1758-3.3789 7.5586-7.5586 7.5586-4.1758 0-7.5586-3.3789-7.5586-7.5586l0.003906-82.719c0-38.629 29.52-70.055 65.797-70.055 36.285 0 65.801 31.426 65.801 70.055v82.719c0 4.1797-3.3789 7.5586-7.5547 7.5586z"></path>
  <path d="m336.88 377.95c-13.012 0-23.598-10.402-23.598-23.195 0-12.785 10.586-23.191 23.598-23.191 13.008 0 23.594 10.402 23.594 23.191 0 12.793-10.586 23.195-23.594 23.195zm0-36.305c-7.457 0-13.523 5.8789-13.523 13.113s6.0664 13.121 13.523 13.121c7.4531 0 13.516-5.8828 13.516-13.121 0-7.2305-6.0664-13.113-13.516-13.113z"></path>
  <path d="m453.36 377.08c-13.008 0-23.594-10.402-23.594-23.191 0-12.793 10.586-23.195 23.594-23.195 13.012 0 23.598 10.402 23.598 23.195 0 12.785-10.586 23.191-23.598 23.191zm0-36.312c-7.4531 0-13.516 5.8828-13.516 13.121 0 7.2344 6.0664 13.113 13.516 13.113 7.457 0 13.523-5.8789 13.523-13.113-0.003907-7.2344-6.0664-13.121-13.523-13.121z"></path>
 </g>

      </g>
      </svg>