<svg id="svg" fill="#000000" stroke="#000000" width="16" height="16" version="1.1" viewBox="144 144 512 512" xmlns="http://www.w3.org/2000/svg">
    <g id="IconSvg_bgCarrier" stroke-width="0"></g>
    <g id="IconSvg_tracerCarrier" stroke-linecap="round" stroke-linejoin="round" stroke="#CCCCCC" stroke-width="0">
      <g xmlns="http://www.w3.org/2000/svg">
  <path d="m599.77 234.02c-2.5391-0.34766-5.1016-0.53516-7.6602-0.53516h-257.47c-18.391 0-34.773 8.8477-45.082 22.516l-10.191-40.652c-4.4102-17.621-15.418-32.477-30.996-41.816-15.574-9.3516-33.859-12.059-51.492-7.6523-19.312 4.8398-35.488 17.844-44.367 35.664-2.582 5.1836-0.46094 11.504 4.7227 14.086 5.1836 2.5625 11.504 0.46094 14.086-4.7227 6.1211-12.332 17.297-21.316 30.66-24.676 12.188-3.043 24.832-1.1641 35.613 5.3125 10.758 6.4453 18.367 16.719 21.422 28.906l20.75 82.824c0.019531 0.13672 0.0625 0.27344 0.082031 0.41016 0.019532 0.0625 0.042969 0.13672 0.0625 0.19922l39.316 157.05c6.3203 25.168 28.844 42.762 54.801 42.762h196.48c28.086 0 52.133-20.98 55.922-48.773l21.633-157.24c4.2266-30.871-17.418-59.43-48.297-63.66zm27.488 60.785-21.613 157.23c-2.4141 17.477-17.508 30.66-35.184 30.66l-196.44-0.003907c-16.32 0-30.461-11.051-34.438-26.871l-39.445-157.57c-0.66016-2.7305-0.98828-5.5-0.98828-8.293 0-19.566 15.934-35.496 35.488-35.496h257.47c1.6172 0 3.2422 0.125 4.8164 0.32422 19.391 2.6797 33.004 20.617 30.336 40.016z"></path>
  <path d="m328.9 636.17c30.301 0 54.938-24.645 54.938-54.938s-24.645-54.938-54.938-54.938c-30.293 0-54.957 24.645-54.957 54.938s24.656 54.938 54.957 54.938zm0-88.891c18.715 0 33.945 15.23 33.945 33.945s-15.23 33.945-33.945 33.945c-18.734 0-33.965-15.23-33.965-33.945s15.23-33.945 33.965-33.945z"></path>
  <path d="m618.76 581.23c0-30.301-24.664-54.938-54.938-54.938-30.301 0-54.938 24.645-54.938 54.938s24.645 54.938 54.938 54.938c30.27-0.003906 54.938-24.648 54.938-54.938zm-88.891 0c0-18.715 15.23-33.945 33.945-33.945s33.945 15.23 33.945 33.945-15.23 33.945-33.945 33.945c-18.719-0.003907-33.945-15.23-33.945-33.945z"></path>
  <path d="m460.29 330.63c-21.422 0-38.848 17.414-38.848 38.836s17.422 38.848 38.848 38.848c21.422 0 38.848-17.422 38.848-38.848-0.003907-21.422-17.426-38.836-38.848-38.836zm0 56.68c-9.8555 0-17.855-8.0078-17.855-17.855 0-9.8438 7.9961-17.844 17.855-17.844 9.8438 0 17.855 8.0078 17.855 17.844-0.003906 9.8477-8.0117 17.855-17.855 17.855z"></path>
  <path d="m548.89 330.63c-21.422 0-38.848 17.414-38.848 38.836s17.422 38.848 38.848 38.848c21.402 0 38.824-17.422 38.824-38.848 0-21.422-17.422-38.836-38.824-38.836zm0 56.68c-9.8555 0-17.855-8.0078-17.855-17.855 0-9.8438 7.9961-17.844 17.855-17.844 9.8438 0 17.832 8.0078 17.832 17.844 0 9.8477-7.9961 17.855-17.832 17.855z"></path>
  <path d="m371.68 330.63c-21.422 0-38.848 17.414-38.848 38.836s17.422 38.848 38.848 38.848c21.422 0 38.855-17.422 38.855-38.848 0-21.422-17.434-38.836-38.855-38.836zm0 56.68c-9.8438 0-17.855-8.0078-17.855-17.855 0-9.8438 8.0195-17.844 17.855-17.844 9.8359 0 17.855 8.0078 17.855 17.844 0 9.8477-8.0078 17.855-17.855 17.855z"></path>
 </g>

      </g>
     <g id="IconSvg_iconCarrier">
      <g xmlns="http://www.w3.org/2000/svg">
  <path d="m599.77 234.02c-2.5391-0.34766-5.1016-0.53516-7.6602-0.53516h-257.47c-18.391 0-34.773 8.8477-45.082 22.516l-10.191-40.652c-4.4102-17.621-15.418-32.477-30.996-41.816-15.574-9.3516-33.859-12.059-51.492-7.6523-19.312 4.8398-35.488 17.844-44.367 35.664-2.582 5.1836-0.46094 11.504 4.7227 14.086 5.1836 2.5625 11.504 0.46094 14.086-4.7227 6.1211-12.332 17.297-21.316 30.66-24.676 12.188-3.043 24.832-1.1641 35.613 5.3125 10.758 6.4453 18.367 16.719 21.422 28.906l20.75 82.824c0.019531 0.13672 0.0625 0.27344 0.082031 0.41016 0.019532 0.0625 0.042969 0.13672 0.0625 0.19922l39.316 157.05c6.3203 25.168 28.844 42.762 54.801 42.762h196.48c28.086 0 52.133-20.98 55.922-48.773l21.633-157.24c4.2266-30.871-17.418-59.43-48.297-63.66zm27.488 60.785-21.613 157.23c-2.4141 17.477-17.508 30.66-35.184 30.66l-196.44-0.003907c-16.32 0-30.461-11.051-34.438-26.871l-39.445-157.57c-0.66016-2.7305-0.98828-5.5-0.98828-8.293 0-19.566 15.934-35.496 35.488-35.496h257.47c1.6172 0 3.2422 0.125 4.8164 0.32422 19.391 2.6797 33.004 20.617 30.336 40.016z"></path>
  <path d="m328.9 636.17c30.301 0 54.938-24.645 54.938-54.938s-24.645-54.938-54.938-54.938c-30.293 0-54.957 24.645-54.957 54.938s24.656 54.938 54.957 54.938zm0-88.891c18.715 0 33.945 15.23 33.945 33.945s-15.23 33.945-33.945 33.945c-18.734 0-33.965-15.23-33.965-33.945s15.23-33.945 33.965-33.945z"></path>
  <path d="m618.76 581.23c0-30.301-24.664-54.938-54.938-54.938-30.301 0-54.938 24.645-54.938 54.938s24.645 54.938 54.938 54.938c30.27-0.003906 54.938-24.648 54.938-54.938zm-88.891 0c0-18.715 15.23-33.945 33.945-33.945s33.945 15.23 33.945 33.945-15.23 33.945-33.945 33.945c-18.719-0.003907-33.945-15.23-33.945-33.945z"></path>
  <path d="m460.29 330.63c-21.422 0-38.848 17.414-38.848 38.836s17.422 38.848 38.848 38.848c21.422 0 38.848-17.422 38.848-38.848-0.003907-21.422-17.426-38.836-38.848-38.836zm0 56.68c-9.8555 0-17.855-8.0078-17.855-17.855 0-9.8438 7.9961-17.844 17.855-17.844 9.8438 0 17.855 8.0078 17.855 17.844-0.003906 9.8477-8.0117 17.855-17.855 17.855z"></path>
  <path d="m548.89 330.63c-21.422 0-38.848 17.414-38.848 38.836s17.422 38.848 38.848 38.848c21.402 0 38.824-17.422 38.824-38.848 0-21.422-17.422-38.836-38.824-38.836zm0 56.68c-9.8555 0-17.855-8.0078-17.855-17.855 0-9.8438 7.9961-17.844 17.855-17.844 9.8438 0 17.832 8.0078 17.832 17.844 0 9.8477-7.9961 17.855-17.832 17.855z"></path>
  <path d="m371.68 330.63c-21.422 0-38.848 17.414-38.848 38.836s17.422 38.848 38.848 38.848c21.422 0 38.855-17.422 38.855-38.848 0-21.422-17.434-38.836-38.855-38.836zm0 56.68c-9.8438 0-17.855-8.0078-17.855-17.855 0-9.8438 8.0195-17.844 17.855-17.844 9.8359 0 17.855 8.0078 17.855 17.844 0 9.8477-8.0078 17.855-17.855 17.855z"></path>
 </g>

      </g>
      </svg>