<svg id="svg" fill="#000000" stroke="#000000" width="16" height="16" version="1.1" viewBox="144 144 512 512" xmlns="http://www.w3.org/2000/svg">
    <g id="IconSvg_bgCarrier" stroke-width="0"></g>
    <g id="IconSvg_tracerCarrier" stroke-linecap="round" stroke-linejoin="round" stroke="#CCCCCC" stroke-width="0">
      <path xmlns="http://www.w3.org/2000/svg" d="m201.05 267.62s-12.105-16.641 22.695-40.848c34.797-25.719 39.336-28.746 39.336-28.746s27.234 7.5664 49.926 28.746c22.695 21.18 28.746 57.492 24.207 74.133-6.0508 18.156-45.387 40.848-45.387 40.848 40.848 62.031 104.39 125.57 166.42 167.94 0 0 22.695-40.848 40.848-45.387 18.156-6.0508 54.465 1.5117 75.648 24.207 21.18 22.695 27.234 49.926 27.234 49.926s-3.0273 3.0273-27.234 37.824c-25.719 34.797-40.848 24.207-40.848 24.207-128.6-36.312-296.54-205.76-332.85-332.85z" fill-rule="evenodd"></path>

      </g>
     <g id="IconSvg_iconCarrier">
      <path xmlns="http://www.w3.org/2000/svg" d="m201.05 267.62s-12.105-16.641 22.695-40.848c34.797-25.719 39.336-28.746 39.336-28.746s27.234 7.5664 49.926 28.746c22.695 21.18 28.746 57.492 24.207 74.133-6.0508 18.156-45.387 40.848-45.387 40.848 40.848 62.031 104.39 125.57 166.42 167.94 0 0 22.695-40.848 40.848-45.387 18.156-6.0508 54.465 1.5117 75.648 24.207 21.18 22.695 27.234 49.926 27.234 49.926s-3.0273 3.0273-27.234 37.824c-25.719 34.797-40.848 24.207-40.848 24.207-128.6-36.312-296.54-205.76-332.85-332.85z" fill-rule="evenodd"></path>

      </g>
      </svg>