<svg id="svg" fill=currentColor stroke=currentColor width="16" height="16" version="1.1" viewBox="144 144 512 512" xmlns="http://www.w3.org/2000/svg" stroke-width="0">
    <g id="IconSvg_bgCarrier" stroke-width="0"></g>
    <g id="IconSvg_tracerCarrier" stroke-linecap="round" stroke-linejoin="round" stroke="#CCCCCC" stroke-width="0">
      <g xmlns="http://www.w3.org/2000/svg">
  <path d="m510.21 163.84h-220.42v47.234h-94.465v425.09h409.35v-425.09h-94.465zm-188.93 31.488h157.44v62.977h-157.44zm251.91 47.234v362.11h-346.37v-362.11h62.977v47.23h220.42v-47.23z"></path>
  <path d="m274.05 510.21h251.91v31.488h-251.91z"></path>
  <path d="m274.05 431.49h251.91v31.488h-251.91z"></path>
  <path d="m274.05 352.77h251.91v31.488h-251.91z"></path>
 </g>

      </g>
     <g id="IconSvg_iconCarrier">
      <g xmlns="http://www.w3.org/2000/svg">
  <path d="m510.21 163.84h-220.42v47.234h-94.465v425.09h409.35v-425.09h-94.465zm-188.93 31.488h157.44v62.977h-157.44zm251.91 47.234v362.11h-346.37v-362.11h62.977v47.23h220.42v-47.23z"></path>
  <path d="m274.05 510.21h251.91v31.488h-251.91z"></path>
  <path d="m274.05 431.49h251.91v31.488h-251.91z"></path>
  <path d="m274.05 352.77h251.91v31.488h-251.91z"></path>
 </g>

      </g>
      </svg>