<svg id="svg" fill="#000000" stroke="#000000" width="16" height="16" version="1.1" viewBox="144 144 512 512" xmlns="http://www.w3.org/2000/svg">
    <g id="IconSvg_bgCarrier" stroke-width="0"></g>
    <g id="IconSvg_tracerCarrier" stroke-linecap="round" stroke-linejoin="round" stroke="#CCCCCC" stroke-width="0">
      <path xmlns="http://www.w3.org/2000/svg" d="m327.25 321.61c0.011719-19.293 7.6875-37.789 21.336-51.422 13.648-13.633 32.156-21.285 51.445-21.277 19.293 0.007812 37.789 7.6797 51.426 21.324 13.637 13.648 21.297 32.152 21.293 51.441-0.007812 19.293-7.6719 37.793-21.316 51.434-13.641 13.637-32.145 21.301-51.434 21.301-19.301-0.011719-37.805-7.6875-51.445-21.34-13.645-13.652-21.305-32.16-21.305-51.461zm72.75 100.76c-55.773 0-111.95 19.398-111.95 62.676v54.914h-0.003907c0.027344 6.1641 5.0195 11.156 11.188 11.184h201.52c6.1641-0.027344 11.156-5.0195 11.184-11.184v-54.914c0-43.277-56.176-62.676-111.95-62.676z"></path>

      </g>
     <g id="IconSvg_iconCarrier">
      <path xmlns="http://www.w3.org/2000/svg" d="m327.25 321.61c0.011719-19.293 7.6875-37.789 21.336-51.422 13.648-13.633 32.156-21.285 51.445-21.277 19.293 0.007812 37.789 7.6797 51.426 21.324 13.637 13.648 21.297 32.152 21.293 51.441-0.007812 19.293-7.6719 37.793-21.316 51.434-13.641 13.637-32.145 21.301-51.434 21.301-19.301-0.011719-37.805-7.6875-51.445-21.34-13.645-13.652-21.305-32.16-21.305-51.461zm72.75 100.76c-55.773 0-111.95 19.398-111.95 62.676v54.914h-0.003907c0.027344 6.1641 5.0195 11.156 11.188 11.184h201.52c6.1641-0.027344 11.156-5.0195 11.184-11.184v-54.914c0-43.277-56.176-62.676-111.95-62.676z"></path>

      </g>
      </svg>